# xmcd
#
# Track frame offsets:
#	150
#	23256
#	41848
#	56672
#	72263
#	88331
#
# Disc length: 1388 seconds
#
# Revision: 0
# Processed by: cddbd v1.5.2PL0 Copyright (c) Steve Scherf et al.
# Submitted via: FairStars CD Ripper 1.52
#
DISCID=4a056a06
DTITLE=Steve Coughlin - Out Of The Cold
DYEAR=2012
DGENRE=Country
TTITLE0=Cityman
TTITLE1=I Don't Want To Go There
TTITLE2=Lucky One
TTITLE3=I'll Miss The Way You Smile
TTITLE4=Do You Love Me
TTITLE5=Red River Run
EXTD=
EXTT0=
EXTT1=
EXTT2=
EXTT3=
EXTT4=
EXTT5=
PLAYORDER=
